  <svg width="50" height="81" viewBox="0 0 50 81" fill="none" xmlns="http://www.w3.org/2000/svg">
  <path d="M25.2906 43.5806L15.6309 49.0896L15.5687 32.1373L25.2906 43.5806Z" fill="#AFB7FA"/>
  <path d="M25.2903 43.572L15.5698 32.1357L34.8532 32.065L25.2903 43.572Z" fill="#AFB7FA"/>
  <path d="M35.2893 31.8724L35.3535 49.3667" stroke="#18116C"/>
  <path d="M25.2905 43.572L34.9155 49.0064L15.6214 49.0772L25.2905 43.572Z" fill="#FADCB5"/>
  <path d="M25.2906 43.5721L34.9157 49.0036L34.8535 32.0578L25.2906 43.5721Z" fill="#AFB7FA"/>
  <path d="M15.2046 31.5295L15.2709 49.6172" stroke="#18116C"/>
  <path d="M7.11727 40.6278L3.24162 40.642L3.21749 34.0629L1.1306 34.0706L1.08233 20.9123L3.16922 20.9047L3.15232 16.2993L4.94108 16.2927L4.92539 12.0163L7.01228 12.0087L7.00383 9.70597L8.7926 9.69941L8.78536 7.72567L10.8722 7.71802L10.8638 5.41533L15.0376 5.40001L15.0303 3.42628L19.4672 3.41L19.4587 1.10731L29.9369 1.06887L29.9453 3.37156L34.7067 3.35409L34.7139 5.32783L38.8877 5.31252L38.8962 7.61521L40.6849 7.60864L40.6922 9.58238L42.779 9.57472L42.7875 11.8774L44.8744 11.8698L44.8901 16.1462L46.6788 16.1396L46.6957 20.745L48.7826 20.7373L48.8309 33.8956L46.744 33.9032L46.7681 40.4823L42.8925 40.4966L42.884 38.1939L40.7972 38.2015L40.7887 35.8988L38.7018 35.9065L38.6946 33.9328L35.2967 33.9452L35.2882 31.6425L24.9723 31.6804L15.1341 31.7165L15.1426 34.0192L10.9688 34.0345L10.976 36.0082L8.88914 36.0159L8.89759 38.3186L7.10883 38.3251L7.11727 40.6278Z" fill="#C9403C" fill-opacity="0.86" stroke="#18116C"/>
  <path d="M42.8825 40.5219L46.7581 40.5076L46.7823 47.0867L48.8692 47.0791L48.9174 60.2373L46.8305 60.245L46.8474 64.8504L45.0587 64.8569L45.0744 69.1333L42.9875 69.141L42.9959 71.4437L41.2072 71.4503L41.2144 73.424L39.1275 73.4316L39.136 75.7343L34.9622 75.7496L34.9694 77.7234L30.5326 77.7397L30.541 80.0423L20.0629 80.0808L20.0544 77.7781L15.2931 77.7956L15.2858 75.8218L11.112 75.8371L11.1036 73.5345L9.31484 73.541L9.3076 71.5673L7.22071 71.5749L7.21226 69.2722L5.12537 69.2799L5.10969 65.0035L3.32092 65.01L3.30403 60.4047L1.21714 60.4123L1.16887 47.2541L3.25576 47.2464L3.23162 40.6673L7.10727 40.6531L7.11572 42.9558L9.2026 42.9481L9.21105 45.2508L11.2979 45.2432L11.3052 47.2169L15.1808 47.2027L15.1893 49.5054L25.0275 49.4693L35.3534 49.4314L35.3449 47.1287L39.031 47.1152L39.0237 45.1414L41.1106 45.1338L41.1022 42.8311L42.8909 42.8245L42.8825 40.5219Z" fill="#FBF5EA"/>
  <path d="M25.2902 43.5722L34.915 48.9518M46.7581 40.5076L42.8825 40.5218L42.8909 42.8245L41.1022 42.8311L41.1106 45.1338L39.0237 45.1414L39.031 47.1152L35.3449 47.1287L35.3534 49.4314L25.0275 49.4693L15.1893 49.5054L15.1808 47.2027L11.3052 47.2169L11.2979 45.2432L9.21105 45.2508L9.2026 42.9481L7.11572 42.9558L7.10727 40.6531L3.23162 40.6673L3.25576 47.2464L1.16887 47.2541L1.21714 60.4123L3.30403 60.4047L3.32092 65.01L5.10969 65.0035L5.12537 69.2799L7.21226 69.2722L7.22071 71.5749L9.3076 71.5673L9.31484 73.541L11.1036 73.5345L11.112 75.8371L15.2858 75.8218L15.2931 77.7956L20.0544 77.7781L20.0629 80.0808L30.541 80.0423L30.5326 77.7397L34.9694 77.7234L34.9622 75.7496L39.136 75.7343L39.1275 73.4316L41.2144 73.424L41.2072 71.4503L42.9959 71.4437L42.9875 69.141L45.0744 69.1333L45.0587 64.8569L46.8474 64.8504L46.8305 60.245L48.9174 60.2373L48.8692 47.0791L46.7823 47.0867L46.7581 40.5076Z" stroke="#18116C"/>
  <path d="M25.2902 43.5721L35.3532 49.3667M25.2902 43.5721L15.2701 49.4404M25.2902 43.5721L25.2459 31.4927" stroke="#18116C"/>
  </svg>